<svg xmlns="http://www.w3.org/2000/svg" width="106.524" height="104.439" viewBox="0 0 106.524 104.439">
  <g id="Prélévement_en_eau" data-name="Prélévement en eau" transform="translate(-173.992 -929.344)">
    <path id="Tracé_145" data-name="Tracé 145" d="M202.728,1021.639h49.049a3.17,3.17,0,0,0,2.746-1.586l24.525-42.476a3.172,3.172,0,0,0,0-3.171L254.523,931.93a3.17,3.17,0,0,0-2.746-1.586H202.728a3.17,3.17,0,0,0-2.746,1.586l-24.524,42.476a3.172,3.172,0,0,0,0,3.171l24.524,42.476A3.17,3.17,0,0,0,202.728,1021.639Z" transform="translate(0 0)" fill="#fff" stroke="#217aef" stroke-miterlimit="10" stroke-width="2"/>
    <g id="Groupe_177" data-name="Groupe 177" transform="translate(199.909 946.933)">
      <g id="Groupe_176" data-name="Groupe 176">
        <path id="Tracé_146" data-name="Tracé 146" d="M216.875,994.7a27.344,27.344,0,1,1,27.343-27.345A27.376,27.376,0,0,1,216.875,994.7Zm0-52.409a25.065,25.065,0,1,0,25.064,25.064A25.094,25.094,0,0,0,216.875,942.29Z" transform="translate(-189.53 -940.011)" fill="#217aef"/>
        <path id="Tracé_147" data-name="Tracé 147" d="M207.367,962.4a4.557,4.557,0,1,1,4.558-4.558A4.563,4.563,0,0,1,207.367,962.4Zm0-6.837a2.279,2.279,0,1,0,2.279,2.279A2.282,2.282,0,0,0,207.367,955.567Z" transform="translate(-180.022 -930.503)" fill="#217aef"/>
        <path id="Tracé_148" data-name="Tracé 148" d="M235.022,974.7a1.117,1.117,0,0,1-.436-.088l-4.208-1.743a1.139,1.139,0,0,1,.872-2.106l4.209,1.745a1.139,1.139,0,0,1-.438,2.191Zm-40,0a1.14,1.14,0,0,1-.436-2.193l4.208-1.742a1.14,1.14,0,0,1,.873,2.106l-4.208,1.742A1.125,1.125,0,0,1,195.027,974.7Zm2.78-7.859h-4.558a1.139,1.139,0,0,1,0-2.279h4.558a1.139,1.139,0,0,1,0,2.279Zm38.864-.422h0l-4.554,0a1.139,1.139,0,1,1,0-2.279h0l4.554,0a1.139,1.139,0,1,1,0,2.277ZM217.444,964a1.139,1.139,0,0,1-.8-1.944l11.278-11.276a1.139,1.139,0,0,1,1.61,1.611L218.25,963.664A1.142,1.142,0,0,1,217.444,964Zm-18.207-4.122a1.128,1.128,0,0,1-.438-.087l-4.206-1.745a1.14,1.14,0,1,1,.875-2.106l4.2,1.747a1.139,1.139,0,0,1-.436,2.191Zm31.578,0a1.139,1.139,0,0,1-.436-2.191l4.211-1.743a1.139,1.139,0,0,1,.872,2.105l-4.211,1.742A1.119,1.119,0,0,1,230.815,959.875Zm-27.873-5.546a1.137,1.137,0,0,1-.807-.335l-3.219-3.221a1.139,1.139,0,0,1,1.611-1.609l3.219,3.221a1.139,1.139,0,0,1-.8,1.944Zm5.546-3.7a1.141,1.141,0,0,1-1.054-.7l-1.742-4.208a1.139,1.139,0,1,1,2.106-.872l1.742,4.208a1.139,1.139,0,0,1-.616,1.488A1.117,1.117,0,0,1,208.488,950.624Zm13.079,0a1.111,1.111,0,0,1-.436-.088,1.139,1.139,0,0,1-.616-1.488l1.743-4.206a1.139,1.139,0,0,1,2.106.872l-1.745,4.206A1.137,1.137,0,0,1,221.567,950.624Zm-6.67-.875a1.139,1.139,0,0,1-1.139-1.139v-4.556a1.14,1.14,0,0,1,2.281,0v4.556A1.141,1.141,0,0,1,214.9,949.749Z" transform="translate(-187.683 -937.932)" fill="#217aef"/>
        <path id="Tracé_149" data-name="Tracé 149" d="M220.472,970.371H199.964a1.137,1.137,0,0,1-1.138-1.139V962.4a1.137,1.137,0,0,1,1.138-1.139h20.508a1.139,1.139,0,0,1,1.139,1.139v6.835A1.139,1.139,0,0,1,220.472,970.371ZM201.1,968.092h18.229v-4.556H201.1Z" transform="translate(-182.874 -924.799)" fill="#217aef"/>
      </g>
    </g>
    <g id="Groupe_179" data-name="Groupe 179" transform="translate(187.846 1008.475)">
      <circle id="Ellipse_46" data-name="Ellipse 46" cx="12.334" cy="12.334" r="12.334" fill="#fff" stroke="#21b7ef" stroke-miterlimit="10" stroke-width="1.278"/>
      <g id="Groupe_178" data-name="Groupe 178" transform="translate(7.879 5.783)">
        <path id="Tracé_150" data-name="Tracé 150" d="M191.278,979.4l-3.6,6.274a4.456,4.456,0,1,0,7.731,0l-3.6-6.274A.311.311,0,0,0,191.278,979.4Z" transform="translate(-187.091 -979.245)" fill="#51c5ef"/>
      </g>
    </g>
    <g id="Groupe_182" data-name="Groupe 182" transform="translate(213.896 1008.475)">
      <circle id="Ellipse_47" data-name="Ellipse 47" cx="12.334" cy="12.334" r="12.334" fill="#fff" stroke="#17a59b" stroke-miterlimit="10" stroke-width="1.278"/>
      <g id="Groupe_181" data-name="Groupe 181" transform="translate(5.676 7.251)">
        <g id="Groupe_180" data-name="Groupe 180" transform="translate(0 2.996)">
          <path id="Tracé_151" data-name="Tracé 151" d="M213.089,982.459c-1.292,1.11-2.313,1.987-5.085.422-3.66-2.068-5.375-.594-6.751.589a.765.765,0,0,0-.091,1.064.731.731,0,0,0,1.043.093c1.292-1.11,2.313-1.987,5.083-.422a6.771,6.771,0,0,0,3.3,1.035,5.153,5.153,0,0,0,3.454-1.623.765.765,0,0,0,.089-1.064A.728.728,0,0,0,213.089,982.459Zm0,3.777c-1.292,1.11-2.313,1.989-5.085.424-3.66-2.068-5.375-.6-6.751.587a.768.768,0,0,0-.091,1.066.73.73,0,0,0,1.043.091c1.292-1.11,2.313-1.987,5.083-.422a6.777,6.777,0,0,0,3.3,1.036,5.155,5.155,0,0,0,3.454-1.625.765.765,0,0,0,.089-1.064A.729.729,0,0,0,213.089,986.236Z" transform="translate(-200.989 -981.846)" fill="#17a59b"/>
        </g>
        <rect id="Rectangle_47" data-name="Rectangle 47" width="13.315" height="1.574" rx="0.458" transform="translate(0)" fill="#17a59b"/>
      </g>
    </g>
    <g id="Groupe_184" data-name="Groupe 184" transform="translate(239.91 1008.475)">
      <circle id="Ellipse_48" data-name="Ellipse 48" cx="12.334" cy="12.334" r="12.334" fill="#fff" stroke="#093f93" stroke-miterlimit="10" stroke-width="1.278"/>
      <g id="Groupe_183" data-name="Groupe 183" transform="translate(5.038 6.335)">
        <path id="Tracé_152" data-name="Tracé 152" d="M217.109,982.613c1.416-1.217,2.535-2.178,5.57-.463a7.424,7.424,0,0,0,3.614,1.134,5.638,5.638,0,0,0,3.786-1.779.838.838,0,0,0,.1-1.165.8.8,0,0,0-1.143-.1c-1.416,1.217-2.535,2.178-5.572.463-4.01-2.267-5.889-.652-7.4.643a.84.84,0,0,0-.1,1.167A.8.8,0,0,0,217.109,982.613Zm11.926,1.766c-1.416,1.215-2.535,2.178-5.572.462-4.01-2.265-5.889-.652-7.4.645a.838.838,0,0,0-.1,1.165.8.8,0,0,0,1.143.1c1.416-1.217,2.535-2.178,5.57-.463a7.41,7.41,0,0,0,3.614,1.136,5.646,5.646,0,0,0,3.786-1.78.84.84,0,0,0,.1-1.167A.8.8,0,0,0,229.035,984.379Zm0,4.139c-1.416,1.217-2.535,2.178-5.572.462-4.01-2.265-5.889-.652-7.4.645a.84.84,0,0,0-.1,1.167.8.8,0,0,0,1.143.1c1.416-1.218,2.535-2.178,5.57-.463a7.422,7.422,0,0,0,3.614,1.134,5.646,5.646,0,0,0,3.786-1.78.84.84,0,0,0,.1-1.167A.8.8,0,0,0,229.035,988.518Z" transform="translate(-215.776 -979.567)" fill="#093f93"/>
      </g>
    </g>
  </g>
</svg>
