<svg xmlns="http://www.w3.org/2000/svg" width="82.872" height="28.238" viewBox="0 0 82.872 28.238">
  <g id="logo_brgm_web_fr_couleur" transform="translate(-3.166 -3.095)">
    <path id="Tracé_4" data-name="Tracé 4" d="M11.024,3.095a7.859,7.859,0,1,0,7.86,7.858,7.859,7.859,0,0,0-7.86-7.858m0,5.481A1.346,1.346,0,0,0,9.617,9.848a1.17,1.17,0,0,0,.174.612c-.752-.213-1.2-.569-1.234-1.132A2.263,2.263,0,0,1,11.024,7.2,2.261,2.261,0,0,1,13.49,9.329c-.032.563-.48.919-1.233,1.132a1.169,1.169,0,0,0,.173-.612A1.345,1.345,0,0,0,11.024,8.576ZM14.515,9a3.04,3.04,0,0,0,.016-.306,3.292,3.292,0,0,0-3.507-3.022A3.291,3.291,0,0,0,7.517,8.691,2.534,2.534,0,0,0,7.535,9,2.714,2.714,0,0,1,7,7.4c0-1.776,1.8-3.213,4.02-3.213S15.045,5.628,15.045,7.4A2.716,2.716,0,0,1,14.515,9Z" transform="translate(0 0)" fill="#fff"/>
    <g id="Groupe_10" data-name="Groupe 10" transform="translate(21.19 10.96)">
      <path id="Tracé_5" data-name="Tracé 5" d="M284.647,125.927H286.9v5.541h.043a2.415,2.415,0,0,1,2.075-1.148,2.117,2.117,0,0,1,2.008,1.015c.287.462.354,1.1.354,2.713v4.26a5.1,5.1,0,0,1-.374,2.406,2.048,2.048,0,0,1-1.966,1.059,2.535,2.535,0,0,1-2.14-1.147v1.016h-2.252V125.927m4.48,7.969c0-.708-.242-1.326-1.1-1.326a1.14,1.14,0,0,0-1.124,1.215v4.349c0,.816.442,1.387,1.124,1.387.773,0,1.1-.616,1.1-1.523Z" transform="translate(-284.647 -125.927)" fill="#fff"/>
      <path id="Tracé_6" data-name="Tracé 6" d="M418.719,194.67h2.253v1.193a4.1,4.1,0,0,1,2.978-1.325v2.384a1.758,1.758,0,0,0-.684-.134,2.244,2.244,0,0,0-2.293,2.429v6.644h-2.253V194.67Z" transform="translate(-410.134 -190.145)" fill="#fff"/>
      <path id="Tracé_7" data-name="Tracé 7" d="M516.792,207.163a1.143,1.143,0,0,0,1.193,1.1c.728,0,1.036-.509,1.036-1.215v-2.206h-.043a2.424,2.424,0,0,1-2.1,1.147,2.044,2.044,0,0,1-1.965-1.059,5.058,5.058,0,0,1-.377-2.406v-4.26c0-1.61.066-2.251.354-2.713a2.118,2.118,0,0,1,2.008-1.015,2.514,2.514,0,0,1,2.119,1.148V194.67h2.252v12.559a3.187,3.187,0,0,1-3.377,3.289c-1.367,0-3.067-.8-3.354-3.355h2.252m0-4.746c0,.706.243,1.323,1.1,1.323a1.136,1.136,0,0,0,1.125-1.213V198.18c0-.816-.44-1.392-1.125-1.392-.772,0-1.1.619-1.1,1.524Z" transform="translate(-499.82 -190.145)" fill="#fff"/>
      <path id="Tracé_8" data-name="Tracé 8" d="M648.616,194.67h2.252v1.082h.043a2.38,2.38,0,0,1,2.12-1.214,2.439,2.439,0,0,1,2.006,1.126,2.834,2.834,0,0,1,2.342-1.126,2.44,2.44,0,0,1,2.449,2.736v8.586h-2.252v-7.747c0-.816-.4-1.326-1.1-1.326-.838,0-1.125.554-1.125,1.547v7.526H653.1v-7.747c0-.816-.4-1.326-1.1-1.326-.838,0-1.126.554-1.126,1.547v7.526h-2.252Z" transform="translate(-625.311 -190.145)" fill="#fff"/>
    </g>
    <g id="Groupe_11" data-name="Groupe 11" transform="translate(28.007 7.374)">
      <path id="Tracé_9" data-name="Tracé 9" d="M391.112,72.685V70.773a.831.831,0,1,1,1.662,0v.144h-.442v-.144a.39.39,0,1,0-.779,0v1.912a.39.39,0,1,0,.779,0v-.721h-.412v-.379h.854v1.1a.831.831,0,1,1-1.662,0Z" transform="translate(-391.112 -69.928)" fill="#fff"/>
      <path id="Tracé_10" data-name="Tracé 10" d="M433.66,70.153c-.1.105-.58.618-.6.639h-.248c.061-.1.388-.608.409-.639Z" transform="translate(-430.142 -70.139)" fill="#fff"/>
      <path id="Tracé_11" data-name="Tracé 11" d="M425.509,88.406a1.085,1.085,0,0,1-.091-.5v-.85a1.088,1.088,0,0,1,.091-.5.7.7,0,0,1,.642-.35.718.718,0,0,1,.735.765v.672h-1.028v.389a.289.289,0,0,0,.577.034h.444a.747.747,0,0,1-.192.484.716.716,0,0,1-.537.216A.7.7,0,0,1,425.509,88.406Zm.35-1.435V87.3h.587v-.334c0-.209-.111-.335-.295-.335S425.858,86.761,425.858,86.971Z" transform="translate(-423.221 -85.154)" fill="#fff"/>
      <path id="Tracé_12" data-name="Tracé 12" d="M456.068,88.406a1.1,1.1,0,0,1-.092-.5v-.85a1.1,1.1,0,0,1,.092-.5.765.765,0,0,1,1.285,0,1.088,1.088,0,0,1,.092.5v.85a1.085,1.085,0,0,1-.092.5.765.765,0,0,1-1.285,0Zm.35-1.435v1.011c0,.209.11.334.294.334s.292-.125.292-.334V86.971c0-.209-.11-.335-.292-.335S456.418,86.761,456.418,86.971Z" transform="translate(-451.823 -85.154)" fill="#fff"/>
      <path id="Tracé_13" data-name="Tracé 13" d="M486.613,88.027c0-.17-.086-.275-.285-.35l-.25-.093a.7.7,0,0,1-.5-.675.711.711,0,0,1,.724-.714.68.68,0,0,1,.686.675h-.41a.295.295,0,0,0-.588.033c0,.106.028.216.242.3l.305.12a.683.683,0,0,1,.484.692.729.729,0,0,1-.734.739.7.7,0,0,1-.726-.7h.412c.047.234.191.29.309.29A.321.321,0,0,0,486.613,88.027Z" transform="translate(-479.515 -85.153)" fill="#fff"/>
      <path id="Tracé_14" data-name="Tracé 14" d="M515.792,88.406a1.067,1.067,0,0,1-.092-.5v-.85a1.069,1.069,0,0,1,.092-.5.7.7,0,0,1,.642-.35.713.713,0,0,1,.727.746h-.442c-.018-.259-.182-.306-.286-.306-.184,0-.294.125-.294.335v1.051a.289.289,0,0,0,.577.034h.443a.744.744,0,0,1-.19.484.715.715,0,0,1-.536.216A.7.7,0,0,1,515.792,88.406Z" transform="translate(-507.722 -85.154)" fill="#fff"/>
      <path id="Tracé_15" data-name="Tracé 15" d="M545.841,70.388v.442h-.44v-.442Z" transform="translate(-535.522 -70.359)" fill="#fff"/>
      <path id="Tracé_16" data-name="Tracé 16" d="M545.841,86.656v2.5h-.44v-2.5Z" transform="translate(-535.522 -85.585)" fill="#fff"/>
      <path id="Tracé_17" data-name="Tracé 17" d="M560.321,88.406a1.085,1.085,0,0,1-.092-.5v-.85a1.088,1.088,0,0,1,.092-.5.7.7,0,0,1,.642-.35.717.717,0,0,1,.735.765v.672h-1.027v.389a.289.289,0,0,0,.576.034h.445a.745.745,0,0,1-.191.484.719.719,0,0,1-.537.216A.7.7,0,0,1,560.321,88.406Zm.35-1.435V87.3h.586v-.334c0-.209-.11-.335-.293-.335S560.671,86.761,560.671,86.971Z" transform="translate(-549.4 -85.154)" fill="#fff"/>
      <path id="Tracé_18" data-name="Tracé 18" d="M651.959,88.406a1.056,1.056,0,0,1-.092-.5v-.85a1.059,1.059,0,0,1,.092-.5.7.7,0,0,1,.641-.35.718.718,0,0,1,.735.765v.672h-1.027v.389a.289.289,0,0,0,.576.034h.444a.757.757,0,0,1-.191.484.719.719,0,0,1-.538.216A.694.694,0,0,1,651.959,88.406Zm.349-1.435V87.3h.585v-.334c0-.209-.11-.335-.294-.335S652.309,86.761,652.309,86.971Z" transform="translate(-635.171 -85.154)" fill="#fff"/>
      <path id="Tracé_19" data-name="Tracé 19" d="M591.634,86.458a.51.51,0,0,1,.457-.262c.24,0,.5.155.5.592v1.938h-.441V86.981c0-.212-.113-.345-.292-.345-.266,0-.3.227-.3.4v1.694h-.443v-2.5h.443v.34Z" transform="translate(-578.307 -85.154)" fill="#fff"/>
      <path id="Tracé_20" data-name="Tracé 20" d="M622.961,88.406a1.1,1.1,0,0,1-.092-.5v-.85a1.083,1.083,0,0,1,.092-.5.7.7,0,0,1,.643-.35.712.712,0,0,1,.727.746h-.439c-.014-.193-.114-.306-.288-.306s-.292.125-.292.335v1.051a.289.289,0,0,0,.577.034h.443a.746.746,0,0,1-.192.484.712.712,0,0,1-.535.216A.7.7,0,0,1,622.961,88.406Z" transform="translate(-608.029 -85.154)" fill="#fff"/>
      <path id="Tracé_21" data-name="Tracé 21" d="M682.491,88.027c0-.17-.084-.275-.283-.35,0,0-.252-.093-.252-.093a.7.7,0,0,1-.5-.675.712.712,0,0,1,.725-.714.68.68,0,0,1,.686.675h-.412a.3.3,0,0,0-.589.033c0,.106.031.216.244.3l.305.12a.68.68,0,0,1,.483.692.728.728,0,0,1-.733.739.7.7,0,0,1-.727-.7h.414c.046.234.191.29.308.29A.32.32,0,0,0,682.491,88.027Z" transform="translate(-662.851 -85.153)" fill="#fff"/>
      <path id="Tracé_22" data-name="Tracé 22" d="M792.764,86.656v2.5h-.44v-.34l-.082.109a.508.508,0,0,1-.456.261c-.24,0-.495-.156-.495-.592V86.656h.442V88.4c0,.212.112.343.291.343.267,0,.3-.225.3-.395v-1.7Z" transform="translate(-765.667 -85.585)" fill="#fff"/>
      <path id="Tracé_23" data-name="Tracé 23" d="M761.1,88.756a.7.7,0,0,0,.642-.35,1.1,1.1,0,0,0,.094-.5v-.85a1.066,1.066,0,0,0-.094-.5.763.763,0,0,0-1.283,0,1.085,1.085,0,0,0-.094.5v.85a1.082,1.082,0,0,0,.094.5A.7.7,0,0,0,761.1,88.756Zm0-2.12c.184,0,.294.125.294.335v1.011c0,.209-.11.334-.294.334s-.292-.125-.292-.334V86.971C760.8,86.761,760.914,86.636,761.1,86.636Z" transform="translate(-736.717 -85.154)" fill="#fff"/>
      <path id="Tracé_24" data-name="Tracé 24" d="M729.942,86.443a.543.543,0,0,1,.461-.247.434.434,0,0,1,.418.224,1.13,1.13,0,0,1,.082.535v.982a1.215,1.215,0,0,1-.075.606.451.451,0,0,1-.43.214.521.521,0,0,1-.446-.246l-.072-.106-.009.128v1.236h-.441V86.225h.441v.3Zm-.071.552v1a.3.3,0,0,0,.3.319c.188,0,.292-.123.292-.343v-.946c0-.247-.106-.39-.292-.39A.319.319,0,0,0,729.872,87Z" transform="translate(-707.768 -85.154)" fill="#fff"/>
      <path id="Tracé_25" data-name="Tracé 25" d="M823.467,86.55a.92.92,0,0,1,.622-.291v.459l-.119-.023a.558.558,0,0,0-.567.6v1.492h-.442v-2.5h.442v.322Z" transform="translate(-795.31 -85.213)" fill="#fff"/>
      <path id="Tracé_26" data-name="Tracé 26" d="M863.237,86.656v2.5H862.8v-.339l-.081.108a.51.51,0,0,1-.456.261c-.24,0-.5-.156-.5-.592V86.656h.442V88.4c0,.212.113.343.294.343.267,0,.3-.225.3-.395v-1.7Z" transform="translate(-831.626 -85.585)" fill="#fff"/>
      <path id="Tracé_27" data-name="Tracé 27" d="M893.991,86.458a.506.506,0,0,1,.457-.262c.239,0,.495.155.495.592v1.938H894.5V86.981c0-.212-.112-.345-.294-.345-.266,0-.3.227-.3.4v1.694h-.442v-2.5h.442v.34Z" transform="translate(-861.302 -85.154)" fill="#fff"/>
      <path id="Tracé_28" data-name="Tracé 28" d="M967.765,70.388V70.8h-.6V73.93h-.443V70.8h-.6v-.411Z" transform="translate(-929.304 -70.359)" fill="#fff"/>
      <path id="Tracé_29" data-name="Tracé 29" d="M1022.225,86.55a.927.927,0,0,1,.623-.291v.459l-.119-.023a.559.559,0,0,0-.568.6v1.492h-.442v-2.5h.442v.322Z" transform="translate(-981.341 -85.213)" fill="#fff"/>
      <path id="Tracé_30" data-name="Tracé 30" d="M1044.325,86.55a.918.918,0,0,1,.622-.291v.459l-.121-.023a.558.558,0,0,0-.565.6v1.492h-.441v-2.5h.441v.322Z" transform="translate(-1002.026 -85.213)" fill="#fff"/>
      <path id="Tracé_31" data-name="Tracé 31" d="M1146.361,86.656v2.5h-.443v-.339l-.08.108a.51.51,0,0,1-.458.261c-.237,0-.492-.156-.492-.592V86.656h.44V88.4c0,.212.112.343.294.343.265,0,.3-.225.3-.395v-1.7Z" transform="translate(-1096.623 -85.585)" fill="#fff"/>
      <path id="Tracé_32" data-name="Tracé 32" d="M1114.645,70.388V73.93h-.442v-.3l-.071.079a.545.545,0,0,1-.462.246.433.433,0,0,1-.417-.223,1.15,1.15,0,0,1-.083-.536v-.98a1.205,1.205,0,0,1,.078-.606.45.45,0,0,1,.43-.214.516.516,0,0,1,.445.247l.072.107.009-.128V70.388Zm-1.033,1.8v.944c0,.249.106.391.294.391s.3-.144.3-.358v-1a.3.3,0,0,0-.3-.319C1113.772,71.84,1113.612,71.9,1113.612,72.185Z" transform="translate(-1066.935 -70.359)" fill="#fff"/>
      <path id="Tracé_33" data-name="Tracé 33" d="M1177.048,86.55a.925.925,0,0,1,.622-.291v.459l-.119-.023a.558.558,0,0,0-.567.6v1.492h-.443v-2.5h.443v.322Z" transform="translate(-1126.25 -85.213)" fill="#fff"/>
      <path id="Tracé_34" data-name="Tracé 34" d="M1197.058,86.4a.738.738,0,0,1,.536-.206.7.7,0,0,1,.74.775v1.756h-.443c0-.055-.007-.341-.007-.341l-.068.092a.519.519,0,0,1-.472.279c-.237,0-.52-.112-.52-.647s.125-.836.782-.836l.121.007.165.012v-.31c0-.223-.105-.345-.3-.345a.337.337,0,0,0-.323.26h-.427A.79.79,0,0,1,1197.058,86.4Zm.207,1.605c0,.224.121.369.308.369s.319-.141.319-.369v-.384l-.18-.021C1197.424,87.6,1197.264,87.746,1197.264,88.007Z" transform="translate(-1145.233 -85.153)" fill="#fff"/>
      <path id="Tracé_35" data-name="Tracé 35" d="M1228.768,70.387v1.366l.081-.107a.517.517,0,0,1,.445-.247.449.449,0,0,1,.43.215c.059.1.075.225.075.605v.98a1.152,1.152,0,0,1-.082.536.431.431,0,0,1-.418.223.537.537,0,0,1-.459-.246l-.067-.075,0,.1v.194h-.443V70.387Zm0,1.771v1c0,.215.12.358.3.358s.291-.142.291-.391v-.944c0-.285-.16-.345-.291-.345A.3.3,0,0,0,1228.768,72.158Z" transform="translate(-1174.717 -70.358)" fill="#fff"/>
      <path id="Tracé_36" data-name="Tracé 36" d="M1259.011,70.966V73.82c0,.2.068.275.256.3v.416c-.441-.007-.7-.127-.7-.682v-2.89Z" transform="translate(-1203.026 -70.9)" fill="#fff"/>
      <path id="Tracé_37" data-name="Tracé 37" d="M1274.569,88.406a1.1,1.1,0,0,1-.093-.5v-.85a1.083,1.083,0,0,1,.093-.5.7.7,0,0,1,.642-.35.717.717,0,0,1,.734.765v.672h-1.028v.389a.29.29,0,0,0,.578.034h.443a.738.738,0,0,1-.191.484.715.715,0,0,1-.536.216A.7.7,0,0,1,1274.569,88.406Zm.348-1.435V87.3h.586v-.334c0-.209-.11-.335-.292-.335S1274.916,86.761,1274.916,86.971Z" transform="translate(-1217.913 -85.154)" fill="#fff"/>
      <path id="Tracé_38" data-name="Tracé 38" d="M1066.044,88.406a1.1,1.1,0,0,1-.091-.5v-.85a1.1,1.1,0,0,1,.091-.5.7.7,0,0,1,.644-.35.716.716,0,0,1,.733.765v.672H1066.4v.389a.289.289,0,0,0,.576.034h.444a.756.756,0,0,1-.191.484.718.718,0,0,1-.536.216A.7.7,0,0,1,1066.044,88.406Zm.352-1.435V87.3h.585v-.334c0-.209-.11-.335-.292-.335S1066.4,86.761,1066.4,86.971Z" transform="translate(-1022.742 -85.154)" fill="#fff"/>
      <path id="Tracé_39" data-name="Tracé 39" d="M990.932,88.406a1.1,1.1,0,0,1-.091-.5v-.85a1.084,1.084,0,0,1,.091-.5.7.7,0,0,1,.643-.35.717.717,0,0,1,.734.765v.672h-1.028v.389a.29.29,0,0,0,.578.034h.443a.74.74,0,0,1-.192.484.714.714,0,0,1-.535.216A.7.7,0,0,1,990.932,88.406Zm.349-1.435V87.3h.586v-.334c0-.209-.11-.335-.292-.335S991.281,86.761,991.281,86.971Z" transform="translate(-952.44 -85.154)" fill="#fff"/>
      <path id="Tracé_40" data-name="Tracé 40" d="M924.507,88.406a1.083,1.083,0,0,1-.093-.5v-.85a1.081,1.081,0,0,1,.093-.5.7.7,0,0,1,.643-.35.716.716,0,0,1,.734.765v.672h-1.028v.389a.289.289,0,0,0,.577.034h.445a.764.764,0,0,1-.192.484.717.717,0,0,1-.536.216A.7.7,0,0,1,924.507,88.406Zm.349-1.435V87.3h.586v-.334c0-.209-.11-.335-.292-.335S924.856,86.761,924.856,86.971Z" transform="translate(-890.266 -85.154)" fill="#fff"/>
    </g>
  </g>
</svg>
