<?xml version="1.0" standalone="no"?>
<!DOCTYPE svg PUBLIC "-//W3C//DTD SVG 20010904//EN"
 "http://www.w3.org/TR/2001/REC-SVG-20010904/DTD/svg10.dtd">
<svg version="1.0" xmlns="http://www.w3.org/2000/svg"
 width="1280.000000pt" height="1249.000000pt" viewBox="0 0 1280.000000 1249.000000"
 preserveAspectRatio="xMidYMid meet">
<metadata>
Created by potrace 1.15, written by Peter Selinger 2001-2017
</metadata>
<g transform="translate(0.000000,1249.000000) scale(0.100000,-0.100000)"
fill="#FFA500" stroke="none">
<path d="M6560 12471 c-119 -38 -255 -125 -587 -374 -226 -169 -307 -218 -423
-255 -116 -37 -182 -46 -330 -45 -236 1 -438 44 -866 184 -133 43 -281 85
-329 94 -99 17 -306 20 -410 5 -313 -45 -576 -215 -689 -444 -72 -147 -83
-258 -46 -482 62 -381 235 -649 465 -718 123 -37 203 -29 640 65 678 147 780
162 1075 163 236 0 306 -8 480 -55 130 -35 256 -128 340 -250 43 -63 77 -89
115 -89 l25 0 0 -430 0 -430 -32 0 c-48 0 -177 -69 -328 -176 -347 -246 -381
-265 -522 -303 -140 -37 -245 -45 -412 -32 -140 11 -159 7 -203 -41 -66 -72
-86 -259 -51 -486 10 -66 14 -75 42 -90 42 -22 108 -39 189 -47 l67 -7 0 -58
c0 -31 -5 -115 -10 -186 -16 -197 -19 -189 122 -325 l121 -117 -17 -503 c-12
-353 -22 -522 -32 -564 -8 -33 -35 -100 -59 -148 -106 -212 -264 -379 -558
-590 l-98 -70 -137 -8 c-138 -9 -261 -1 -344 21 -52 15 -101 48 -198 135 -133
119 -200 156 -313 170 -46 5 -61 3 -70 -8 -10 -12 -303 -34 -1572 -118 -858
-56 -1561 -103 -1563 -104 -2 -2 -8 -429 -33 -2358 -6 -478 -8 -871 -6 -874 3
-2 88 -13 189 -23 183 -19 2480 -253 2848 -290 107 -11 214 -22 238 -25 l42
-6 0 35 c0 31 7 41 58 81 161 128 288 191 487 243 185 48 304 65 465 66 130 0
159 -3 285 -33 481 -113 1308 -288 1417 -300 290 -32 648 3 1258 124 686 136
1209 221 1603 260 229 23 480 17 592 -14 350 -98 536 -322 609 -737 9 -49 25
-161 36 -249 11 -88 27 -198 35 -245 22 -123 28 -348 17 -645 -14 -394 0 -538
57 -589 26 -23 204 -77 362 -110 646 -132 1267 -62 2007 226 187 73 183 67
190 253 13 342 -72 1376 -164 2000 -65 440 -145 739 -283 1058 -108 251 -207
404 -356 552 -624 619 -1704 1084 -3019 1300 -128 21 -204 46 -290 97 -152 90
-268 252 -345 483 -77 232 -76 223 -76 764 l-1 484 151 132 c82 72 155 138
161 146 18 22 35 150 42 324 l7 159 77 11 c121 17 148 45 169 176 21 137 -6
411 -47 476 -33 53 -110 66 -320 53 l-139 -9 -206 69 c-336 112 -420 163 -593
364 -100 116 -198 206 -224 206 -9 0 -12 113 -12 440 l0 440 30 0 c42 0 72 22
113 83 85 129 206 219 346 257 162 45 248 55 481 54 299 -1 387 -15 1100 -168
355 -76 461 -91 541 -77 283 49 480 329 544 772 28 197 17 295 -49 434 -101
214 -292 356 -576 431 -76 20 -128 27 -260 31 -214 7 -283 -5 -582 -103 -268
-86 -489 -146 -633 -170 -121 -20 -366 -23 -450 -5 -197 41 -275 83 -575 306
-277 206 -375 272 -475 320 -120 58 -222 69 -325 36z"/>
</g>
</svg>
