<?xml version="1.0" encoding="utf-8"?>
<!-- Generator: Adobe Illustrator 16.0.3, SVG Export Plug-In . SVG Version: 6.00 Build 0)  -->
<!DOCTYPE svg PUBLIC "-//W3C//DTD SVG 1.1//EN" "http://www.w3.org/Graphics/SVG/1.1/DTD/svg11.dtd">
<svg version="1.1" id="Calque_1" xmlns="http://www.w3.org/2000/svg" xmlns:xlink="http://www.w3.org/1999/xlink" x="0px" y="0px"
	 width="377px" height="175px" viewBox="0 0 377 175" enable-background="new 0 0 377 175" xml:space="preserve">
<g id="fond_bleu" display="none">
	<rect x="-81.31" y="-72" display="inline" fill="#0D72B9" width="508.119" height="320.887"/>
	<path display="inline" fill="#FFFFFF" d="M24.771,123.131c0,6.11-4.954,11.068-11.068,11.068c-6.114,0-11.068-4.958-11.068-11.068
		c0-6.105,4.954-11.068,11.068-11.068C19.817,112.063,24.771,117.023,24.771,123.131"/>
	
		<line display="inline" fill="none" stroke="#FFFFFF" stroke-width="8.433" stroke-linecap="round" stroke-miterlimit="10" x1="13.702" y1="123.131" x2="13.702" y2="37.697"/>
	<path display="inline" fill="none" stroke="#FFFFFF" stroke-width="8.433" stroke-linecap="round" stroke-miterlimit="10" d="
		M104.711,137.716v8.96c0,0-2.108,22.836-22.486,22.836c-20.383,0-23.018-20.423-23.018-22.836c0-2.417,0-32.854,0-32.854V90.28
		c0,0-2.108-22.841-22.491-22.841c-20.378,0-23.014,22.841-23.014,22.841"/>
	
		<line display="inline" fill="none" stroke="#FFFFFF" stroke-width="8.433" stroke-linecap="round" stroke-miterlimit="10" x1="92.584" y1="145.443" x2="104.269" y2="133.759"/>
	
		<line display="inline" fill="none" stroke="#FFFFFF" stroke-width="8.433" stroke-linecap="round" stroke-miterlimit="10" x1="116.397" y1="145.443" x2="104.713" y2="133.759"/>
	<path display="inline" fill="none" stroke="#FFFFFF" stroke-width="8.433" stroke-linecap="round" stroke-miterlimit="10" d="
		M59.141,39.212v-8.96c0,0,2.108-22.841,22.487-22.841c20.382,0,23.018,22.841,23.018,22.841v32.851v23.545"/>
	
		<line display="inline" fill="none" stroke="#FFFFFF" stroke-width="8.433" stroke-linecap="round" stroke-miterlimit="10" x1="70.893" y1="31.854" x2="59.209" y2="43.54"/>
	
		<line display="inline" fill="none" stroke="#FFFFFF" stroke-width="8.433" stroke-linecap="round" stroke-miterlimit="10" x1="47.08" y1="31.854" x2="58.764" y2="43.54"/>
	<path display="inline" fill="#FFFFFF" d="M177.571,31.006c1.873-0.65,3.606-0.609,5.185,0.124c1.581,0.732,2.696,2.042,3.348,3.924
		c0.65,1.882,0.601,3.994-0.137,6.362c-0.741,2.351-1.787,4.616-3.142,6.778c-1.358,2.162-2.833,4.047-4.431,5.649
		c-1.594,1.602-2.919,2.586-3.985,2.957c-0.812,0.28-1.557,0.309-2.232,0.082c-0.671-0.222-1.186-0.572-1.531-1.046
		c-0.346-0.478-0.478-1.07-0.408-1.783c0.074-0.708,0.403-1.396,1.001-2.055c0.972-1.161,1.845-2.606,2.619-4.34
		c0.773-1.734,1.383-3.406,1.832-5.028c-1.074-0.725-1.854-1.779-2.335-3.171c-0.593-1.713-0.485-3.397,0.313-5.044
		C174.475,32.764,175.771,31.628,177.571,31.006"/>
	<path display="inline" fill="#FFFFFF" d="M211.88,113.504c-3.879,0-7.416-0.626-10.606-1.878c-3.195-1.252-5.935-3.067-8.219-5.468
		c-2.285-2.396-4.057-5.324-5.309-8.787c-1.252-3.464-1.874-7.412-1.874-11.839c0-4.353,0.609-8.248,1.82-11.698
		c1.215-3.446,2.932-6.366,5.144-8.763c2.211-2.392,4.85-4.232,7.918-5.521c3.063-1.289,6.448-1.931,10.146-1.931
		c3.846,0,7.313,0.634,10.396,1.902c3.084,1.272,5.711,3.104,7.891,5.497c2.178,2.396,3.85,5.316,5.006,8.762
		c1.162,3.447,1.742,7.362,1.742,11.752v2.294h-40.16c0.22,3.074,0.771,5.76,1.66,8.046c0.89,2.289,2.043,4.175,3.455,5.661
		c1.416,1.486,3.055,2.603,4.924,3.348c1.865,0.741,3.892,1.112,6.065,1.112c1.562,0,3.121-0.206,4.683-0.626
		c1.561-0.416,2.969-1.025,4.221-1.85c1.252-0.814,2.265-1.832,3.047-3.043c0.777-1.219,1.186-2.605,1.219-4.166h9.965
		c-0.402,2.762-1.265,5.203-2.586,7.346c-1.326,2.141-3.006,3.937-5.035,5.386c-2.029,1.458-4.369,2.562-7.021,3.319
		C217.723,113.129,214.895,113.504,211.88,113.504 M225.921,80.365c-0.399-2.541-1.032-4.76-1.901-6.667
		c-0.873-1.907-1.961-3.492-3.271-4.76c-1.301-1.272-2.792-2.232-4.459-2.886c-1.668-0.651-3.464-0.979-5.392-0.979
		c-1.918,0-3.705,0.309-5.355,0.927s-3.13,1.561-4.436,2.829c-1.306,1.272-2.412,2.866-3.318,4.789
		c-0.91,1.923-1.544,4.171-1.906,6.749L225.921,80.365L225.921,80.365z"/>
	<path display="inline" fill="#FFFFFF" d="M280.34,106.809c-4.97,4.463-11.208,6.695-18.719,6.695c-2.578,0-4.962-0.371-7.156-1.111
		c-2.199-0.742-4.109-1.787-5.74-3.129c-1.635-1.344-2.914-2.957-3.838-4.848c-0.926-1.886-1.388-3.99-1.388-6.313
		c0-12.478,10.719-18.72,32.163-18.72h4.678c0-2.286-0.074-4.315-0.218-6.094c-0.146-1.779-0.618-3.27-1.413-4.488
		c-0.799-1.219-2.066-2.141-3.813-2.775c-1.737-0.638-4.191-0.956-7.347-0.956c-8.417,0-12.772,3.031-13.062,9.088h-9.577
		c0.69-11.027,8.416-16.541,23.182-16.541c3.341,0,6.351,0.288,9.034,0.869c2.684,0.581,4.962,1.635,6.831,3.158
		c1.866,1.523,3.308,3.591,4.328,6.201c1.013,2.615,1.522,5.934,1.522,9.961v34.391h-9.471v-5.39H280.34z M280.34,98.215v-11.86
		h-6.588c-13.745,0-20.621,3.73-20.621,11.204c0,2.719,1.025,4.811,3.071,6.26c2.051,1.449,4.765,2.175,8.137,2.175
		c1.562,0,3.113-0.183,4.653-0.544c1.544-0.362,3.014-0.881,4.404-1.549c1.4-0.676,2.688-1.49,3.867-2.449
		C278.445,100.492,279.467,99.413,280.34,98.215"/>
	<path display="inline" fill="#FFFFFF" d="M337.588,105.449c-4.756,5.369-10.084,8.055-15.997,8.055
		c-12.048,0-18.067-6.561-18.067-19.699V58.924h9.577v34.391c0,2.217,0.189,4.103,0.567,5.662c0.384,1.558,0.973,2.83,1.771,3.806
		c0.799,0.979,1.823,1.688,3.074,2.125c1.248,0.437,2.747,0.649,4.488,0.649c5.333,0,10.195-2.846,14.585-8.539V58.924h9.467v53.274
		h-9.467L337.588,105.449L337.588,105.449z"/>
	<path display="inline" fill="none" stroke="#FFFFFF" stroke-width="8.433" stroke-linecap="round" stroke-miterlimit="10" d="
		M153.672,87.686c0,13.515-10.963,24.476-24.482,24.476c-13.518,0-24.481-10.961-24.481-24.476
		c0-13.522,10.963-24.483,24.481-24.483C142.709,63.202,153.672,74.163,153.672,87.686z"/>
</g>
<g id="fond_blanc">
	<path fill="#0C72B9" d="M24.771,123.131c0,6.11-4.954,11.068-11.068,11.068c-6.114,0-11.068-4.958-11.068-11.068
		c0-6.105,4.954-11.068,11.068-11.068C19.817,112.063,24.771,117.023,24.771,123.131"/>
	
		<line fill="none" stroke="#0C72B9" stroke-width="8.433" stroke-linecap="round" stroke-miterlimit="10" x1="13.702" y1="123.131" x2="13.702" y2="37.697"/>
	<path fill="none" stroke="#0C72B9" stroke-width="8.433" stroke-linecap="round" stroke-miterlimit="10" d="M104.711,130.716v15.96
		c0,0-2.108,22.836-22.486,22.836c-20.383,0-23.018-20.423-23.018-22.836c0-2.417,0-32.854,0-32.854V90.28
		c0,0-2.108-22.841-22.491-22.841c-20.378,0-23.014,22.841-23.014,22.841"/>
	
		<line fill="none" stroke="#0C72B9" stroke-width="8.433" stroke-linecap="round" stroke-miterlimit="10" x1="92.584" y1="138.443" x2="104.269" y2="126.759"/>
	
		<line fill="none" stroke="#0C72B9" stroke-width="8.433" stroke-linecap="round" stroke-miterlimit="10" x1="116.397" y1="138.443" x2="104.713" y2="126.759"/>
	<path fill="none" stroke="#0C72B9" stroke-width="8.433" stroke-linecap="round" stroke-miterlimit="10" d="M59.141,39.212v-8.96
		c0,0,2.108-22.841,22.487-22.841c20.382,0,23.018,22.841,23.018,22.841v32.851v23.545"/>
	
		<line fill="none" stroke="#0C72B9" stroke-width="8.433" stroke-linecap="round" stroke-miterlimit="10" x1="70.893" y1="31.854" x2="59.209" y2="43.54"/>
	
		<line fill="none" stroke="#0C72B9" stroke-width="8.433" stroke-linecap="round" stroke-miterlimit="10" x1="47.08" y1="31.854" x2="58.764" y2="43.54"/>
	<path fill="#0C72B9" d="M177.571,31.006c1.873-0.65,3.606-0.609,5.185,0.124c1.581,0.732,2.696,2.042,3.348,3.924
		c0.65,1.882,0.601,3.994-0.137,6.362c-0.741,2.351-1.787,4.616-3.142,6.778c-1.358,2.162-2.833,4.047-4.431,5.649
		c-1.594,1.602-2.919,2.586-3.985,2.957c-0.812,0.28-1.557,0.309-2.232,0.082c-0.671-0.222-1.186-0.572-1.531-1.046
		c-0.346-0.478-0.478-1.07-0.408-1.783c0.074-0.708,0.403-1.396,1.001-2.055c0.972-1.161,1.845-2.606,2.619-4.34
		c0.773-1.734,1.383-3.406,1.832-5.028c-1.074-0.725-1.854-1.779-2.335-3.171c-0.593-1.713-0.485-3.397,0.313-5.044
		C174.475,32.764,175.771,31.628,177.571,31.006"/>
	<path display="none" fill="#0C72B9" d="M211.88,113.504c-3.879,0-7.416-0.626-10.606-1.878c-3.195-1.252-5.935-3.067-8.219-5.468
		c-2.285-2.396-4.057-5.324-5.309-8.787c-1.252-3.464-1.874-7.412-1.874-11.839c0-4.353,0.609-8.248,1.82-11.698
		c1.215-3.446,2.932-6.366,5.144-8.763c2.211-2.392,4.85-4.232,7.918-5.521c3.063-1.289,6.448-1.931,10.146-1.931
		c3.846,0,7.313,0.634,10.396,1.902c3.084,1.272,5.711,3.104,7.891,5.497c2.178,2.396,3.85,5.316,5.006,8.762
		c1.162,3.447,1.742,7.362,1.742,11.752v2.294h-40.16c0.22,3.074,0.771,5.76,1.66,8.046c0.89,2.289,2.043,4.175,3.455,5.661
		c1.416,1.486,3.055,2.603,4.924,3.348c1.865,0.741,3.892,1.112,6.065,1.112c1.562,0,3.121-0.206,4.683-0.626
		c1.561-0.416,2.969-1.025,4.221-1.85c1.252-0.814,2.265-1.832,3.047-3.043c0.777-1.219,1.186-2.605,1.219-4.166h9.965
		c-0.402,2.762-1.265,5.203-2.586,7.346c-1.326,2.141-3.006,3.937-5.035,5.386c-2.029,1.458-4.369,2.562-7.021,3.319
		C217.723,113.129,214.895,113.504,211.88,113.504 M225.921,80.365c-0.399-2.541-1.032-4.76-1.901-6.667
		c-0.873-1.907-1.961-3.492-3.271-4.76c-1.301-1.272-2.792-2.232-4.459-2.886c-1.668-0.651-3.464-0.979-5.392-0.979
		c-1.918,0-3.705,0.309-5.355,0.927s-3.13,1.561-4.436,2.829c-1.306,1.272-2.412,2.866-3.318,4.789
		c-0.91,1.923-1.544,4.171-1.906,6.749L225.921,80.365L225.921,80.365z"/>
	<path display="none" fill="#0C72B9" d="M280.34,106.809c-4.97,4.463-11.208,6.695-18.719,6.695c-2.578,0-4.962-0.371-7.156-1.111
		c-2.199-0.742-4.109-1.787-5.74-3.129c-1.635-1.344-2.914-2.957-3.838-4.848c-0.926-1.886-1.388-3.99-1.388-6.313
		c0-12.478,10.719-18.72,32.163-18.72h4.678c0-2.286-0.074-4.315-0.218-6.094c-0.146-1.779-0.618-3.27-1.413-4.488
		c-0.799-1.219-2.066-2.141-3.813-2.775c-1.737-0.638-4.191-0.956-7.347-0.956c-8.417,0-12.772,3.031-13.062,9.088h-9.577
		c0.69-11.027,8.416-16.541,23.182-16.541c3.341,0,6.351,0.288,9.034,0.869c2.684,0.581,4.962,1.635,6.831,3.158
		c1.866,1.523,3.308,3.591,4.328,6.201c1.013,2.615,1.522,5.934,1.522,9.961v34.391h-9.471v-5.39H280.34z M280.34,98.215v-11.86
		h-6.588c-13.745,0-20.621,3.73-20.621,11.204c0,2.719,1.025,4.811,3.071,6.26c2.051,1.449,4.765,2.175,8.137,2.175
		c1.562,0,3.113-0.183,4.653-0.544c1.544-0.362,3.014-0.881,4.404-1.549c1.4-0.676,2.688-1.49,3.867-2.449
		C278.445,100.492,279.467,99.413,280.34,98.215"/>
	<path display="none" fill="#0C72B9" d="M337.588,105.449c-4.756,5.369-10.084,8.055-15.997,8.055
		c-12.048,0-18.067-6.561-18.067-19.699V58.924h9.577v34.391c0,2.217,0.189,4.103,0.567,5.662c0.384,1.558,0.973,2.83,1.771,3.806
		c0.799,0.979,1.823,1.688,3.074,2.125c1.248,0.437,2.747,0.649,4.488,0.649c5.333,0,10.195-2.846,14.585-8.539V58.924h9.467v53.274
		h-9.467L337.588,105.449L337.588,105.449z"/>
	<path fill="none" stroke="#0C72B9" stroke-width="8.433" stroke-linecap="round" stroke-miterlimit="10" d="M153.672,87.686
		c0,13.515-10.963,24.476-24.482,24.476c-13.518,0-24.481-10.961-24.481-24.476c0-13.522,10.963-24.483,24.481-24.483
		C142.709,63.202,153.672,74.163,153.672,87.686z"/>
	<g enable-background="new    ">
		<path fill="#0C72B9" d="M223.777,108.19c7.435,0,12.771-3.092,16.012-9.275h9.055c-1.915,5.007-4.952,9.055-9.11,12.146
			c-4.159,3.093-9.515,4.639-16.067,4.639c-8.319,0-15.092-2.761-20.317-8.282c-5.079-5.373-7.62-12.109-7.62-20.208
			c0-8.171,2.43-14.907,7.289-20.208c5.151-5.521,11.852-8.281,20.098-8.281c8.243,0,14.943,2.76,20.097,8.281
			c4.858,5.301,7.288,12.037,7.288,20.208v3.313h-46.268c0.588,5.08,2.611,9.276,6.072,12.589
			C213.839,106.498,218.328,108.19,223.777,108.19z M223.115,66.229c-5.08,0-9.351,1.584-12.811,4.748
			c-3.24,3.02-5.228,6.957-5.963,11.815h37.545c-0.736-4.858-2.725-8.796-5.963-11.815
			C232.463,67.813,228.194,66.229,223.115,66.229z"/>
		<path fill="#0C72B9" d="M303.725,105.982c-4.418,6.479-11.007,9.718-19.767,9.718c-7.95,0-14.43-2.761-19.435-8.282
			c-4.859-5.447-7.289-12.183-7.289-20.208c0-8.023,2.43-14.759,7.289-20.208c5.005-5.521,11.666-8.281,19.986-8.281
			c8.318,0,14.723,3.276,19.215,9.827v-8.944h8.281v55.213h-8.281V105.982z M285.063,108.19c5.963,0,10.673-2.06,14.135-6.184
			c3.313-3.901,4.969-8.834,4.969-14.797s-1.656-10.895-4.969-14.797c-3.462-4.122-8.172-6.184-14.135-6.184
			c-5.891,0-10.676,2.062-14.355,6.184c-3.461,3.902-5.19,8.834-5.19,14.797s1.729,10.896,5.19,14.797
			C274.387,106.131,279.172,108.19,285.063,108.19z"/>
		<path fill="#0C72B9" d="M366.223,114.816v-8.613c-1.986,2.65-4.416,4.896-7.287,6.736c-2.871,1.841-6.148,2.761-9.828,2.761
			c-3.682,0-6.846-0.517-9.496-1.546c-2.65-1.03-4.97-2.576-6.957-4.639c-4.565-4.489-6.847-10.416-6.847-17.778V59.604h8.282
			v31.913c0,5.08,1.436,9.129,4.307,12.146c2.871,3.02,6.588,4.527,11.152,4.527c4.639,0,8.576-1.546,11.816-4.638
			c3.238-3.164,4.857-7.214,4.857-12.146V59.604h8.283v55.213H366.223z"/>
	</g>
</g>
</svg>
